<svg width="576" height="512" viewBox="0 0 576 512" fill="none" xmlns="http://www.w3.org/2000/svg">
<g clip-path="url(#clip0_9_10)">
<path d="M96 0C60.7 0 32 28.7 32 64V448C14.3 448 0 462.3 0 480C0 497.7 14.3 512 32 512H320C337.7 512 352 497.7 352 480C352 462.3 337.7 448 320 448V304H336C358.1 304 376 321.9 376 344V376C376 415.8 408.2 448 448 448C487.8 448 520 415.8 520 376V252.3C552.5 242.1 576 211.8 576 176V144C576 135.2 568.8 128 560 128H544V80C544 71.2 536.8 64 528 64C519.2 64 512 71.2 512 80V128H480V80C480 71.2 472.8 64 464 64C455.2 64 448 71.2 448 80V128H432C423.2 128 416 135.2 416 144V176C416 211.8 439.5 242.1 472 252.3V376C472 389.3 461.3 400 448 400C434.7 400 424 389.3 424 376V344C424 295.4 384.6 256 336 256H320V64C320 28.7 291.3 0 256 0H96ZM216.9 82.7C222.9 86.7 225.4 94.2 223.2 101L198.2 175.9H256C262.7 175.9 268.7 180.1 271 186.3C273.3 192.5 271.5 199.6 266.4 204L154.4 300C148.9 304.7 141 305.1 135.1 301.1C129.2 297.1 126.6 289.6 128.8 282.8L153.8 207.9L96 208C89.3 208 83.3 203.8 81 197.6C78.7 191.4 80.5 184.3 85.6 179.9L197.6 83.9C203.1 79.2 211 78.8 216.9 82.8V82.7Z" fill="#4FC737"/>
</g>
<defs>
<clipPath id="clip0_9_10">
<rect width="576" height="512" fill="white"/>
</clipPath>
</defs>
</svg>
