<svg width="640" height="512" viewBox="0 0 640 512" fill="none" xmlns="http://www.w3.org/2000/svg">
<g clip-path="url(#clip0_9_14)">
<path d="M480 0C462.3 0 448 14.3 448 32V192V512H512V192H624C632.8 192 640 184.8 640 176V48C640 39.2 632.8 32 624 32H512C512 14.3 497.7 0 480 0ZM416 159L276.8 39.7C264.8 29.4 247.1 29.4 235.1 39.7L11.1 231.7C1.00003 240.4 -2.69997 254.5 2.00003 267.1C6.70003 279.7 18.6 288 32 288H64V480C64 497.7 78.3 512 96 512H160C177.7 512 192 497.7 192 480V384C192 366.3 206.3 352 224 352H288C305.7 352 320 366.3 320 384V480C320 497.7 334.3 512 352 512H416.7H416.9H415.9V159H416Z" fill="#DD4AE4"/>
</g>
<defs>
<clipPath id="clip0_9_14">
<rect width="640" height="512" fill="white"/>
</clipPath>
</defs>
</svg>
