<svg width="971" height="1056" viewBox="0 0 971 1056" fill="none" xmlns="http://www.w3.org/2000/svg">
<path d="M247 725C204 689.5 494.723 406.462 494.723 406.462C494.723 406.462 752.5 721 742.5 725C732.5 729 492.461 959.648 492.461 959.648C492.461 959.648 290 760.5 247 725Z" fill="white"/>
<circle cx="494.5" cy="448.5" r="371.5" fill="white"/>
<circle cx="495" cy="449" r="321" fill="white" stroke="#3DDBA9" stroke-width="10"/>
<g clip-path="url(#clip0_40_204)">
<mask id="mask0_40_204" style="mask-type:luminance" maskUnits="userSpaceOnUse" x="360" y="269" width="270" height="360">
<path d="M630 269H360V629H630V269Z" fill="white"/>
</mask>
<g mask="url(#mask0_40_204)">
<path d="M393.75 269C375.117 269 360 284.117 360 302.75V595.25C360 613.883 375.117 629 393.75 629H461.25V572.75C461.25 554.117 476.367 539 495 539C513.633 539 528.75 554.117 528.75 572.75V629H596.25C614.883 629 630 613.883 630 595.25V302.75C630 284.117 614.883 269 596.25 269H393.75ZM405 437.75C405 431.562 410.062 426.5 416.25 426.5H438.75C444.938 426.5 450 431.562 450 437.75V460.25C450 466.438 444.938 471.5 438.75 471.5H416.25C410.062 471.5 405 466.438 405 460.25V437.75ZM483.75 426.5H506.25C512.438 426.5 517.5 431.562 517.5 437.75V460.25C517.5 466.438 512.438 471.5 506.25 471.5H483.75C477.562 471.5 472.5 466.438 472.5 460.25V437.75C472.5 431.562 477.562 426.5 483.75 426.5ZM540 437.75C540 431.562 545.062 426.5 551.25 426.5H573.75C579.938 426.5 585 431.562 585 437.75V460.25C585 466.438 579.938 471.5 573.75 471.5H551.25C545.062 471.5 540 466.438 540 460.25V437.75ZM416.25 336.5H438.75C444.938 336.5 450 341.562 450 347.75V370.25C450 376.438 444.938 381.5 438.75 381.5H416.25C410.062 381.5 405 376.438 405 370.25V347.75C405 341.562 410.062 336.5 416.25 336.5ZM472.5 347.75C472.5 341.562 477.562 336.5 483.75 336.5H506.25C512.438 336.5 517.5 341.562 517.5 347.75V370.25C517.5 376.438 512.438 381.5 506.25 381.5H483.75C477.562 381.5 472.5 376.438 472.5 370.25V347.75ZM551.25 336.5H573.75C579.938 336.5 585 341.562 585 347.75V370.25C585 376.438 579.938 381.5 573.75 381.5H551.25C545.062 381.5 540 376.438 540 370.25V347.75C540 341.562 545.062 336.5 551.25 336.5Z" fill="#3DDBA9"/>
</g>
</g>
<defs>
<clipPath id="clip0_40_204">
<rect width="270" height="360" fill="white" transform="translate(360 269)"/>
</clipPath>
</defs>
</svg>
