<svg width="1037" height="1113" viewBox="0 0 1037 1113" fill="none" xmlns="http://www.w3.org/2000/svg">
<path d="M264 791C221 755.5 511.723 472.462 511.723 472.462C511.723 472.462 769.5 787 759.5 791C749.5 795 509.461 1025.65 509.461 1025.65C509.461 1025.65 307 826.5 264 791Z" fill="white"/>
<circle cx="511.5" cy="514.5" r="371.5" fill="white"/>
<circle cx="512" cy="515" r="321" fill="white" stroke="#002B5C" stroke-width="10"/>
<g clip-path="url(#clip0_40_170)">
<mask id="mask0_40_170" style="mask-type:luminance" maskUnits="userSpaceOnUse" x="351" y="294" width="322" height="441">
<path d="M673 294H351V735H673V294Z" fill="white"/>
</mask>
<g mask="url(#mask0_40_170)">
<path fill-rule="evenodd" clip-rule="evenodd" d="M626.312 396.713C626.312 397.102 626.299 397.489 626.272 397.875V689.255H626.053C626.225 689.654 626.312 690.057 626.312 690.467C626.312 700.323 575.116 708.314 511.961 708.314C448.807 708.314 397.611 700.323 397.611 690.467C397.611 690.057 397.698 689.654 397.87 689.255H397.57V396.829H397.611C397.611 396.791 397.611 396.752 397.611 396.713C397.611 372.782 448.807 353.381 511.961 353.381C575.116 353.381 626.312 372.782 626.312 396.713Z" fill="#002B5C"/>
<path d="M563.385 347.538H458.023V359.615H563.385V347.538Z" fill="#002B5C"/>
<g filter="url(#filter0_f_40_170)">
<path d="M533.811 394.698H486.477V708.313H533.811V394.698Z" fill="#002B5C"/>
</g>
<path d="M511.945 696.848C515.631 696.848 518.62 693.855 518.62 690.164C518.62 686.472 515.631 683.48 511.945 683.48C508.258 683.48 505.269 686.472 505.269 690.164C505.269 693.855 508.258 696.848 511.945 696.848Z" fill="#002B5C"/>
<mask id="mask1_40_170" style="mask-type:alpha" maskUnits="userSpaceOnUse" x="474" y="475" width="76" height="77">
<path d="M549.884 475.519H474.029V551.473H549.884V475.519Z" fill="white"/>
</mask>
<g mask="url(#mask1_40_170)">
<path d="M480.354 532.479V526.15C482.356 526.15 483.844 525.622 484.819 524.567C485.794 523.513 487.835 522.985 490.943 522.985C494.05 522.985 496.092 523.513 497.066 524.567C498.041 525.622 499.476 526.15 501.373 526.15C503.374 526.15 504.862 525.622 505.837 524.567C506.811 523.513 508.853 522.985 511.961 522.985C514.963 522.985 517.005 523.513 518.084 524.567C519.164 525.622 520.652 526.15 522.549 526.15C524.55 526.15 526.012 525.622 526.934 524.567C527.856 523.513 529.871 522.985 532.979 522.985C536.087 522.985 538.128 523.513 539.103 524.567C540.077 525.622 541.565 526.15 543.567 526.15V532.479C540.564 532.479 538.523 531.952 537.443 530.897C536.363 529.842 534.875 529.315 532.979 529.315C531.082 529.315 529.647 529.842 528.672 530.897C527.698 531.952 525.657 532.479 522.549 532.479C519.546 532.479 517.505 531.952 516.425 530.897C515.345 529.842 513.857 529.315 511.961 529.315C509.959 529.315 508.471 529.842 507.496 530.897C506.522 531.952 504.481 532.479 501.373 532.479C498.265 532.479 496.25 531.952 495.328 530.897C494.406 529.842 492.944 529.315 490.943 529.315C488.941 529.315 487.453 529.842 486.478 530.897C485.504 531.952 483.462 532.479 480.354 532.479ZM480.354 519.82V513.491C482.356 513.491 483.844 512.964 484.819 511.908C485.794 510.853 487.835 510.326 490.943 510.326C493.945 510.326 495.96 510.853 496.987 511.908C498.015 512.964 499.476 513.491 501.373 513.491C503.374 513.491 504.862 512.964 505.837 511.908C506.811 510.853 508.853 510.326 511.961 510.326C514.963 510.326 516.991 510.853 518.045 511.908C519.098 512.964 520.547 513.491 522.391 513.491C524.392 513.491 525.881 512.964 526.855 511.908C527.83 510.853 529.871 510.326 532.979 510.326C535.981 510.326 538.022 510.853 539.103 511.908C540.182 512.964 541.671 513.491 543.567 513.491V519.82C540.459 519.82 538.391 519.293 537.364 518.238C536.337 517.183 534.875 516.656 532.979 516.656C531.082 516.656 529.647 517.183 528.672 518.238C527.698 519.293 525.657 519.82 522.549 519.82C519.546 519.82 517.505 519.293 516.425 518.238C515.345 517.183 513.857 516.656 511.961 516.656C509.959 516.656 508.497 517.183 507.575 518.238C506.653 519.293 504.639 519.82 501.531 519.82C498.423 519.82 496.355 519.293 495.328 518.238C494.301 517.183 492.839 516.656 490.943 516.656C489.046 516.656 487.558 517.183 486.478 518.238C485.398 519.293 483.357 519.82 480.354 519.82ZM480.354 507.161V500.832C482.356 500.832 483.844 500.304 484.819 499.25C485.794 498.194 487.835 497.667 490.943 497.667C493.945 497.667 495.96 498.194 496.987 499.25C498.015 500.304 499.476 500.832 501.373 500.832C503.374 500.832 504.862 500.304 505.837 499.25C506.811 498.194 508.853 497.667 511.961 497.667C514.963 497.667 516.991 498.194 518.045 499.25C519.098 500.304 520.547 500.832 522.391 500.832C524.392 500.832 525.881 500.304 526.855 499.25C527.83 498.194 529.871 497.667 532.979 497.667C535.981 497.667 538.022 498.194 539.103 499.25C540.182 500.304 541.671 500.832 543.567 500.832V507.161C540.459 507.161 538.391 506.634 537.364 505.579C536.337 504.524 534.875 503.997 532.979 503.997C531.082 503.997 529.647 504.524 528.672 505.579C527.698 506.634 525.657 507.161 522.549 507.161C519.546 507.161 517.505 506.634 516.425 505.579C515.345 504.524 513.857 503.997 511.961 503.997C509.959 503.997 508.497 504.524 507.575 505.579C506.653 506.634 504.639 507.161 501.531 507.161C498.423 507.161 496.355 506.634 495.328 505.579C494.301 504.524 492.839 503.997 490.943 503.997C489.046 503.997 487.558 504.524 486.478 505.579C485.398 506.634 483.357 507.161 480.354 507.161Z" fill="white"/>
</g>
<path fill-rule="evenodd" clip-rule="evenodd" d="M510.679 347.42C537.994 347.42 562.526 347.42 560.137 343.737C560.137 330.984 537.994 320.646 510.679 320.646C483.365 320.646 461.222 330.984 461.222 343.737C461.222 347.42 482.461 347.42 510.679 347.42Z" fill="#002B5C"/>
<path d="M565.821 339.943H456.135C454.04 339.943 452.342 341.644 452.342 343.741C452.342 345.838 454.04 347.539 456.135 347.539H565.821C567.915 347.539 569.613 345.838 569.613 343.741C569.613 341.644 567.915 339.943 565.821 339.943Z" fill="#002B5C"/>
<g filter="url(#filter1_f_40_170)">
<path d="M478.492 341.31H458.314V346.019H478.492V341.31Z" fill="#002B5C"/>
</g>
<g filter="url(#filter2_f_40_170)">
<path d="M534.411 342.903H487.078V346.017H534.411V342.903Z" fill="#002B5C"/>
</g>
<g filter="url(#filter3_f_40_170)">
<path d="M560.289 341.001H542.008V346.014H560.289V341.001Z" fill="#002B5C"/>
</g>
</g>
</g>
<defs>
<filter id="filter0_f_40_170" x="-1013.52" y="-1105.3" width="3047.33" height="3313.62" filterUnits="userSpaceOnUse" color-interpolation-filters="sRGB">
<feFlood flood-opacity="0" result="BackgroundImageFix"/>
<feBlend mode="normal" in="SourceGraphic" in2="BackgroundImageFix" result="shape"/>
<feGaussianBlur stdDeviation="750" result="effect1_foregroundBlur_40_170"/>
</filter>
<filter id="filter1_f_40_170" x="258.314" y="141.31" width="420.177" height="404.709" filterUnits="userSpaceOnUse" color-interpolation-filters="sRGB">
<feFlood flood-opacity="0" result="BackgroundImageFix"/>
<feBlend mode="normal" in="SourceGraphic" in2="BackgroundImageFix" result="shape"/>
<feGaussianBlur stdDeviation="100" result="effect1_foregroundBlur_40_170"/>
</filter>
<filter id="filter2_f_40_170" x="287.078" y="142.903" width="447.333" height="403.114" filterUnits="userSpaceOnUse" color-interpolation-filters="sRGB">
<feFlood flood-opacity="0" result="BackgroundImageFix"/>
<feBlend mode="normal" in="SourceGraphic" in2="BackgroundImageFix" result="shape"/>
<feGaussianBlur stdDeviation="100" result="effect1_foregroundBlur_40_170"/>
</filter>
<filter id="filter3_f_40_170" x="342.008" y="141.001" width="418.281" height="405.013" filterUnits="userSpaceOnUse" color-interpolation-filters="sRGB">
<feFlood flood-opacity="0" result="BackgroundImageFix"/>
<feBlend mode="normal" in="SourceGraphic" in2="BackgroundImageFix" result="shape"/>
<feGaussianBlur stdDeviation="100" result="effect1_foregroundBlur_40_170"/>
</filter>
<clipPath id="clip0_40_170">
<rect width="322" height="441" fill="white" transform="translate(351 294)"/>
</clipPath>
</defs>
</svg>
