<svg width="1174" height="1182" viewBox="0 0 1174 1182" fill="none" xmlns="http://www.w3.org/2000/svg">
<path d="M303 791C260 755.5 550.723 472.462 550.723 472.462C550.723 472.462 808.5 787 798.5 791C788.5 795 548.461 1025.65 548.461 1025.65C548.461 1025.65 346 826.5 303 791Z" fill="white"/>
<circle cx="550.5" cy="514.5" r="371.5" fill="white"/>
<circle cx="551" cy="515" r="321" fill="white" stroke="#28A745" stroke-width="10"/>
<g clip-path="url(#clip0_40_160)">
<path d="M728.505 530.987C728.505 530.987 746.446 621.709 707.298 634.041C694.961 637.928 686.159 638.921 674.182 634.041C644.779 622.067 702.949 566.18 674.182 552.751C660.755 546.482 645.684 544.399 633.442 552.751C615.497 564.993 649.916 594.213 633.442 608.372C619.282 620.541 609.071 608.372 609.071 608.372" stroke="black" stroke-width="5"/>
<path d="M352.571 357.322H609.744V703.642H352.571V357.322Z" fill="#28A745"/>
<g filter="url(#filter0_d_40_160)">
<path d="M337.086 331.406H625.228V357.322H337.086V331.406Z" fill="#28A745"/>
</g>
<path d="M394.311 488.58H373.777V546.468H394.311V488.58Z" fill="#C4C4C4"/>
<path d="M389.598 499.013H378.827V536.035H389.598V499.013Z" fill="#28A745"/>
<path fill-rule="evenodd" clip-rule="evenodd" d="M494.394 373.348H462.933V404.805V404.805C462.933 413.491 469.976 420.533 478.664 420.533C487.351 420.533 494.394 413.491 494.394 404.805V404.805V373.348Z" fill="#C4C4C4"/>
<path d="M478.633 415.547C484.489 415.547 489.236 410.8 489.236 404.945C489.236 399.09 484.489 394.343 478.633 394.343C472.777 394.343 468.029 399.09 468.029 404.945C468.029 410.8 472.777 415.547 478.633 415.547Z" fill="#FF4848"/>
<path d="M758.476 439.991H694.877C691.179 439.991 688.182 442.987 688.182 446.684C688.182 450.381 691.179 453.378 694.877 453.378H758.476C762.173 453.378 765.17 450.381 765.17 446.684C765.17 442.987 762.173 439.991 758.476 439.991Z" fill="#28A745"/>
<path d="M746.84 445.569H707.261C703.915 445.569 701.202 448.281 701.202 451.627V516.486C701.202 519.832 703.915 522.544 707.261 522.544H746.84C750.187 522.544 752.899 519.832 752.899 516.486V451.627C752.899 448.281 750.187 445.569 746.84 445.569Z" fill="#28A745"/>
<path d="M738.814 517.338H716.023C713.792 517.338 711.984 519.146 711.984 521.377V536.355C711.984 538.585 713.792 540.394 716.023 540.394H738.814C741.045 540.394 742.854 538.585 742.854 536.355V521.377C742.854 519.146 741.045 517.338 738.814 517.338Z" fill="#28A745"/>
<path d="M726.526 439.991V396.854" stroke="black" stroke-width="2"/>
<path d="M713.509 439.991V396.854" stroke="black" stroke-width="2"/>
<path d="M739.172 439.991V396.854" stroke="black" stroke-width="2"/>
</g>
<defs>
<filter id="filter0_d_40_160" x="335.086" y="330.406" width="292.142" height="29.9152" filterUnits="userSpaceOnUse" color-interpolation-filters="sRGB">
<feFlood flood-opacity="0" result="BackgroundImageFix"/>
<feColorMatrix in="SourceAlpha" type="matrix" values="0 0 0 0 0 0 0 0 0 0 0 0 0 0 0 0 0 0 127 0" result="hardAlpha"/>
<feOffset dy="1"/>
<feGaussianBlur stdDeviation="1"/>
<feComposite in2="hardAlpha" operator="out"/>
<feColorMatrix type="matrix" values="0 0 0 0 0 0 0 0 0 0 0 0 0 0 0 0 0 0 0.25 0"/>
<feBlend mode="normal" in2="BackgroundImageFix" result="effect1_dropShadow_40_160"/>
<feBlend mode="normal" in="SourceGraphic" in2="effect1_dropShadow_40_160" result="shape"/>
</filter>
<clipPath id="clip0_40_160">
<rect width="513" height="452" fill="white" transform="translate(294 289)"/>
</clipPath>
</defs>
</svg>
