<svg width="1053" height="1277" viewBox="0 0 1053 1277" fill="none" xmlns="http://www.w3.org/2000/svg">
<path d="M296 870C253 834.5 543.723 551.462 543.723 551.462C543.723 551.462 801.5 866 791.5 870C781.5 874 541.461 1104.65 541.461 1104.65C541.461 1104.65 339 905.5 296 870Z" fill="white"/>
<circle cx="543.5" cy="593.5" r="371.5" fill="white"/>
<circle cx="544" cy="594" r="321" fill="white" stroke="#1FB3DC" stroke-width="10"/>
<path d="M532.307 475.752C539.323 470.754 548.677 470.754 555.693 475.752C569.915 485.559 587.297 492.265 604.68 492.265C621.683 492.265 639.697 485.432 653.603 475.752C661.124 470.374 671.364 470.817 678.38 476.827C687.482 484.357 698.923 490.114 710.363 492.772C721.235 495.302 727.998 506.185 725.47 517.067C722.942 527.95 712.07 534.72 701.198 532.189C685.712 528.582 672.818 521.749 664.411 516.371C646.081 526.241 625.538 532.758 604.68 532.758C584.516 532.758 566.376 526.494 553.86 520.8C550.194 519.092 546.844 517.447 544 515.928C541.156 517.447 537.869 519.155 534.14 520.8C521.624 526.494 503.484 532.758 483.32 532.758C462.462 532.758 441.919 526.241 423.589 516.435C415.119 521.749 402.288 528.646 386.802 532.252C375.93 534.783 365.058 528.013 362.53 517.13C360.002 506.248 366.765 495.366 377.637 492.835C389.014 490.114 400.518 484.357 409.557 476.827C416.573 470.817 426.812 470.437 434.334 475.752C448.366 485.432 466.317 492.265 483.32 492.265C500.703 492.265 518.085 485.559 532.307 475.752ZM555.693 657.97C569.915 667.776 587.297 674.483 604.68 674.483C621.683 674.483 639.697 667.65 653.603 657.97C661.124 652.592 671.364 653.034 678.38 659.045C687.482 666.574 698.923 672.332 710.363 674.989C721.235 677.52 727.998 688.402 725.47 699.285C722.942 710.167 712.07 716.937 701.198 714.406C685.712 710.8 672.818 703.967 664.411 698.589C646.081 708.459 625.538 714.976 604.68 714.976C584.516 714.976 566.376 708.712 553.86 703.018C550.194 701.309 546.844 699.664 544 698.146C541.156 699.664 537.869 701.373 534.14 703.018C521.624 708.712 503.484 714.976 483.32 714.976C462.462 714.976 441.919 708.459 423.589 698.652C415.119 703.967 402.288 710.863 386.802 714.47C375.93 717 365.058 710.231 362.53 699.348C360.002 688.466 366.765 677.583 377.637 675.052C389.077 672.395 400.518 666.638 409.62 659.108C416.636 653.161 426.876 652.718 434.397 658.033C448.366 667.65 466.317 674.483 483.32 674.483C500.703 674.483 518.085 667.776 532.307 657.97C539.323 652.971 548.677 652.971 555.693 657.97ZM555.693 566.861C569.915 576.668 587.297 583.374 604.68 583.374C621.683 583.374 639.697 576.541 653.603 566.861C661.124 561.483 671.364 561.926 678.38 567.936C687.482 575.465 698.923 581.223 710.363 583.88C721.235 586.411 727.998 597.294 725.47 608.176C722.942 619.058 712.07 625.828 701.198 623.298C685.712 619.691 672.818 612.858 664.411 607.48C646.081 617.35 625.538 623.867 604.68 623.867C584.516 623.867 566.376 617.603 553.86 611.909C550.194 610.201 546.844 608.556 544 607.037C541.156 608.556 537.869 610.264 534.14 611.909C521.624 617.603 503.484 623.867 483.32 623.867C462.462 623.867 441.919 617.35 423.589 607.543C415.119 612.858 402.288 619.754 386.802 623.361C375.93 625.892 365.058 619.122 362.53 608.239C360.002 597.357 366.765 586.474 377.637 583.944C389.077 581.286 400.518 575.529 409.62 568C416.636 561.989 426.876 561.609 434.397 566.924C448.366 576.541 466.317 583.374 483.32 583.374C500.703 583.374 518.085 576.668 532.307 566.861C539.323 561.862 548.677 561.862 555.693 566.861Z" fill="#1FB3DC"/>
</svg>
