<svg width="951" height="1031" viewBox="0 0 951 1031" fill="none" xmlns="http://www.w3.org/2000/svg">
<path d="M210 724C167 688.5 457.723 405.462 457.723 405.462C457.723 405.462 715.5 720 705.5 724C695.5 728 455.461 958.648 455.461 958.648C455.461 958.648 253 759.5 210 724Z" fill="white"/>
<circle cx="457.5" cy="447.5" r="371.5" fill="white"/>
<circle cx="458" cy="448" r="321" fill="white" stroke="#FFC107" stroke-width="10"/>
<path fill-rule="evenodd" clip-rule="evenodd" d="M474.461 405.528C481.553 399.086 486.006 389.793 486.006 379.462C486.006 360.013 470.228 344.246 450.764 344.246C431.301 344.246 415.523 360.013 415.523 379.462C415.523 389.562 419.779 398.67 426.596 405.092L411.969 662.111H490.799L474.461 405.528Z" fill="#FFC107"/>
<path d="M544.462 224.962L482.664 289.064L496.844 296.074L470.326 334.981L531.117 278.481C524.2 277.193 511.002 273.654 513.555 269.8C516.108 265.945 535.224 238.302 544.462 224.962Z" fill="#FFC107"/>
<path d="M354.508 219.488L378.832 305.141L392.022 296.411L412.313 338.899L394.055 257.939C389.462 263.271 379.766 272.897 377.718 268.752C375.671 264.607 361.392 234.182 354.508 219.488Z" fill="#FFC107"/>
</svg>
