<svg width="899" height="1046" viewBox="0 0 899 1046" fill="none" xmlns="http://www.w3.org/2000/svg">
<path d="M215 738C172 702.5 462.723 419.462 462.723 419.462C462.723 419.462 720.5 734 710.5 738C700.5 742 460.461 972.648 460.461 972.648C460.461 972.648 258 773.5 215 738Z" fill="white"/>
<circle cx="462.5" cy="461.5" r="371.5" fill="white"/>
<circle cx="463" cy="462" r="321" fill="white" stroke="#DD4AE4" stroke-width="10"/>
<g clip-path="url(#clip0_40_199)">
<mask id="mask0_40_199" style="mask-type:luminance" maskUnits="userSpaceOnUse" x="281" y="316" width="364" height="291">
<path d="M645 316H281V607H645V316Z" fill="white"/>
</mask>
<g mask="url(#mask0_40_199)">
<path d="M554 316C543.933 316 535.8 324.128 535.8 334.188V425.125V607H572.2V425.125H635.9C640.905 425.125 645 421.033 645 416.031V343.281C645 338.28 640.905 334.188 635.9 334.188H572.2C572.2 324.128 564.067 316 554 316ZM517.6 406.369L438.43 338.564C431.605 332.71 421.538 332.71 414.713 338.564L287.313 447.689C281.569 452.634 279.465 460.647 282.138 467.809C284.811 474.97 291.579 479.688 299.2 479.688H317.4V588.812C317.4 598.872 325.533 607 335.6 607H372C382.067 607 390.2 598.872 390.2 588.812V534.25C390.2 524.19 398.333 516.062 408.4 516.062H444.8C454.867 516.062 463 524.19 463 534.25V588.812C463 598.872 471.133 607 481.2 607H517.998H518.112H517.543V406.369H517.6Z" fill="#DD4AE4"/>
</g>
</g>
<defs>
<clipPath id="clip0_40_199">
<rect width="364" height="291" fill="white" transform="translate(281 316)"/>
</clipPath>
</defs>
</svg>
