<svg width="576" height="512" viewBox="0 0 576 512" fill="none" xmlns="http://www.w3.org/2000/svg">
<g clip-path="url(#clip0_9_8)">
<path d="M80.3 43.9999C69.8 69.8999 64 98.1999 64 128C64 157.8 69.8 186.1 80.3 212C86.9 228.4 79 247 62.6 253.7C46.2 260.4 27.6 252.4 20.9 236C7.4 202.6 0 166.1 0 128C0 89.8999 7.4 53.3999 20.9 19.9999C27.6 3.59989 46.2 -4.30011 62.6 2.29989C79 8.89989 86.9 27.5999 80.3 43.9999ZM555.1 19.9999C568.6 53.3999 576 89.8999 576 128C576 166.1 568.6 202.6 555.1 236C548.5 252.4 529.8 260.3 513.4 253.7C497 247.1 489.1 228.4 495.7 212C506.2 186.1 512 157.8 512 128C512 98.1999 506.2 69.8999 495.7 43.9999C489.1 27.5999 497 8.99989 513.4 2.29989C529.8 -4.40011 548.4 3.59989 555.1 19.9999ZM352 128C352 151.7 339.1 172.4 320 183.4V480C320 497.7 305.7 512 288 512C270.3 512 256 497.7 256 480V183.4C236.9 172.3 224 151.7 224 128C224 92.6999 252.7 63.9999 288 63.9999C323.3 63.9999 352 92.6999 352 128ZM170.6 76.7999C163.8 92.3999 160 109.7 160 128C160 146.3 163.8 163.6 170.6 179.2C177.7 195.4 170.3 214.3 154.1 221.3C137.9 228.3 119 221 112 204.8C101.7 181.2 96 155.2 96 128C96 100.8 101.7 74.7999 112 51.1999C119.1 34.9999 137.9 27.5999 154.1 34.6999C170.3 41.7999 177.7 60.5999 170.6 76.7999ZM464 51.1999C474.3 74.7999 480 100.8 480 128C480 155.2 474.3 181.2 464 204.8C456.9 221 438.1 228.4 421.9 221.3C405.7 214.2 398.3 195.4 405.4 179.2C412.2 163.6 416 146.3 416 128C416 109.7 412.2 92.3999 405.4 76.7999C398.3 60.5999 405.7 41.6999 421.9 34.6999C438.1 27.6999 457 34.9999 464 51.1999Z" fill="#CC3235"/>
</g>
<defs>
<clipPath id="clip0_9_8">
<rect width="576" height="512" fill="white"/>
</clipPath>
</defs>
</svg>
