<svg width="576" height="512" viewBox="0 0 576 512" fill="none" xmlns="http://www.w3.org/2000/svg">
<path d="M269.5 69.9C280.6 62 295.4 62 306.5 69.9C329 85.4 356.5 96 384 96C410.9 96 439.4 85.2 461.4 69.9C473.3 61.4 489.5 62.1 500.6 71.6C515 83.5 533.1 92.6 551.2 96.8C568.4 100.8 579.1 118 575.1 135.2C571.1 152.4 553.9 163.1 536.7 159.1C512.2 153.4 491.8 142.6 478.5 134.1C449.5 149.7 417 160 384 160C352.1 160 323.4 150.1 303.6 141.1C297.8 138.4 292.5 135.8 288 133.4C283.5 135.8 278.3 138.5 272.4 141.1C252.6 150.1 223.9 160 192 160C159 160 126.5 149.7 97.5 134.2C84.1 142.6 63.8 153.5 39.3 159.2C22.1 163.2 4.90002 152.5 0.900019 135.3C-3.09998 118.1 7.60002 100.9 24.8 96.9C42.8 92.6 61 83.5 75.3 71.6C86.4 62.1 102.6 61.5 114.5 69.9C136.7 85.2 165.1 96 192 96C219.5 96 247 85.4 269.5 69.9ZM306.5 357.9C329 373.4 356.5 384 384 384C410.9 384 439.4 373.2 461.4 357.9C473.3 349.4 489.5 350.1 500.6 359.6C515 371.5 533.1 380.6 551.2 384.8C568.4 388.8 579.1 406 575.1 423.2C571.1 440.4 553.9 451.1 536.7 447.1C512.2 441.4 491.8 430.6 478.5 422.1C449.5 437.7 417 448 384 448C352.1 448 323.4 438.1 303.6 429.1C297.8 426.4 292.5 423.8 288 421.4C283.5 423.8 278.3 426.5 272.4 429.1C252.6 438.1 223.9 448 192 448C159 448 126.5 437.7 97.5 422.2C84.1 430.6 63.8 441.5 39.3 447.2C22.1 451.2 4.90002 440.5 0.900019 423.3C-3.09998 406.1 7.60002 388.9 24.8 384.9C42.9 380.7 61 371.6 75.4 359.7C86.5 350.3 102.7 349.6 114.6 358C136.7 373.2 165.1 384 192 384C219.5 384 247 373.4 269.5 357.9C280.6 350 295.4 350 306.5 357.9ZM306.5 213.9C329 229.4 356.5 240 384 240C410.9 240 439.4 229.2 461.4 213.9C473.3 205.4 489.5 206.1 500.6 215.6C515 227.5 533.1 236.6 551.2 240.8C568.4 244.8 579.1 262 575.1 279.2C571.1 296.4 553.9 307.1 536.7 303.1C512.2 297.4 491.8 286.6 478.5 278.1C449.5 293.7 417 304 384 304C352.1 304 323.4 294.1 303.6 285.1C297.8 282.4 292.5 279.8 288 277.4C283.5 279.8 278.3 282.5 272.4 285.1C252.6 294.1 223.9 304 192 304C159 304 126.5 293.7 97.5 278.2C84.1 286.6 63.8 297.5 39.3 303.2C22.1 307.2 4.90002 296.5 0.900019 279.3C-3.09998 262.1 7.60002 244.9 24.8 240.9C42.9 236.7 61 227.6 75.4 215.7C86.5 206.2 102.7 205.6 114.6 214C136.7 229.2 165.1 240 192 240C219.5 240 247 229.4 269.5 213.9C280.6 206 295.4 206 306.5 213.9Z" fill="#1FB3DC"/>
</svg>
